<?xml version="1.0" standalone="no"?>
<!DOCTYPE svg PUBLIC "-//W3C//DTD SVG 20010904//EN"
 "http://www.w3.org/TR/2001/REC-SVG-20010904/DTD/svg10.dtd">
<svg version="1.0" xmlns="http://www.w3.org/2000/svg"
 width="683.000000pt" height="683.000000pt" viewBox="0 0 683.000000 683.000000"
 preserveAspectRatio="xMidYMid meet">
<metadata>
Created by potrace 1.11, written by Peter Selinger 2001-2013
</metadata>
<g transform="translate(0.000000,683.000000) scale(0.100000,-0.100000)"
fill="#000000" stroke="none">
<path d="M3758 6075 c-2 -2 -31 -7 -63 -10 -33 -3 -68 -8 -77 -11 -10 -3 -30
-7 -44 -10 -56 -10 -189 -41 -189 -44 0 -1 -7 -3 -15 -5 -40 -9 -196 -71 -285
-114 -94 -46 -278 -159 -300 -184 -5 -7 -28 -25 -50 -42 -48 -35 -218 -205
-260 -259 -17 -21 -39 -50 -51 -65 -115 -148 -234 -387 -301 -606 -28 -91 -31
-104 -32 -126 -2 -43 -20 -49 -166 -54 -77 -3 -150 -7 -162 -9 -12 -3 -46 -7
-75 -10 -29 -4 -62 -8 -73 -10 -131 -27 -189 -41 -258 -62 -45 -13 -89 -26
-97 -28 -67 -18 -271 -116 -375 -179 -218 -133 -442 -347 -566 -542 -53 -83
-109 -175 -109 -180 0 -2 -13 -32 -29 -65 -16 -33 -26 -60 -23 -60 4 0 2 -4
-3 -8 -10 -7 -81 -204 -89 -247 -2 -11 -9 -39 -16 -63 -6 -24 -13 -55 -15 -70
-6 -45 -16 -103 -22 -126 -9 -38 -11 -390 -2 -456 15 -107 19 -135 25 -160 3
-14 7 -36 10 -50 38 -192 149 -454 260 -617 24 -35 44 -68 44 -73 0 -4 3 -10
8 -12 4 -2 26 -28 49 -59 101 -133 298 -309 458 -411 86 -54 248 -137 335
-171 70 -28 246 -84 272 -88 4 0 31 -7 60 -15 45 -12 343 -14 1891 -14 1056 0
1846 4 1855 9 10 5 31 11 47 14 49 8 229 70 237 81 4 6 8 8 8 4 0 -14 300 130
300 144 0 4 4 8 10 8 8 0 68 38 176 111 92 62 299 268 383 380 34 46 68 91 75
99 7 9 15 22 19 30 4 8 25 44 46 80 49 80 72 129 121 250 35 86 88 263 95 314
2 12 6 37 10 56 25 132 25 504 -1 605 -3 11 -7 34 -10 50 -15 91 -93 335 -115
360 -5 5 -9 14 -9 21 0 15 -111 218 -121 222 -5 2 -9 10 -9 17 0 8 -6 20 -13
27 -7 7 -28 36 -47 63 -19 28 -37 52 -40 55 -3 3 -25 30 -50 60 -61 75 -93
101 -154 127 -95 40 -223 14 -297 -61 -56 -56 -73 -102 -74 -191 0 -93 19
-139 90 -219 25 -27 57 -68 72 -90 15 -23 31 -43 34 -46 3 -3 14 -21 25 -40
10 -19 24 -42 30 -50 19 -27 94 -200 94 -218 0 -10 4 -22 8 -27 12 -14 35
-115 49 -215 13 -89 6 -322 -11 -370 -3 -8 -7 -32 -10 -53 -10 -63 -67 -217
-118 -317 -95 -187 -258 -373 -427 -490 -20 -14 -37 -28 -39 -32 -2 -5 -8 -8
-14 -8 -5 0 -29 -14 -54 -30 -24 -17 -44 -27 -44 -23 0 4 -4 3 -8 -3 -12 -18
-152 -80 -263 -116 l-104 -35 -1770 2 c-973 0 -1780 4 -1792 8 -12 4 -30 9
-40 11 -10 2 -45 13 -78 24 -361 122 -639 355 -794 667 -47 93 -93 216 -105
275 -2 14 -9 45 -15 70 -33 146 -34 360 -1 539 22 123 96 326 142 393 10 14
18 29 18 32 0 3 23 39 51 81 90 133 248 280 394 367 55 34 186 98 198 98 3 0
18 5 34 12 15 6 33 12 38 14 102 30 190 53 221 58 21 3 50 8 64 11 80 17 229
20 525 13 108 -3 124 -1 163 19 102 54 145 125 163 266 5 45 12 89 14 97 3 8
7 32 11 53 3 22 12 56 19 78 8 22 14 41 14 44 2 22 25 96 32 101 5 3 9 12 9
21 0 22 121 263 132 263 4 0 8 5 8 10 0 19 103 143 180 218 72 70 237 192 259
192 6 0 11 5 11 10 0 6 9 10 20 10 11 0 20 5 20 10 0 6 9 10 20 10 11 0 20 5
20 10 0 6 7 10 15 10 8 0 40 11 71 25 31 14 66 27 78 30 11 2 50 12 86 21 36
9 79 18 95 20 317 46 582 8 845 -122 320 -157 550 -423 673 -780 28 -82 54
-179 47 -179 -1 0 3 -12 8 -26 6 -14 13 -50 16 -80 4 -30 9 -66 12 -81 3 -15
-2 -54 -12 -85 -9 -32 -18 -62 -19 -68 -3 -11 -15 -51 -80 -260 -25 -82 -48
-157 -50 -165 -2 -8 -20 -67 -40 -130 -21 -63 -38 -119 -40 -125 -1 -5 -4 -17
-8 -25 -3 -8 -40 -123 -82 -255 -42 -132 -88 -271 -101 -310 -14 -38 -27 -77
-29 -85 -2 -8 -10 -34 -18 -58 l-13 -42 -13 37 c-7 21 -16 47 -21 58 -7 19
-43 134 -105 340 -35 115 -49 141 -98 188 -49 46 -92 65 -159 72 -142 14 -255
-68 -303 -219 -43 -138 -185 -519 -191 -513 -4 4 -106 341 -111 367 -2 14 -8
34 -13 45 -4 11 -16 49 -26 85 -41 152 -124 234 -249 247 -48 5 -159 -19 -179
-39 -7 -7 -26 -25 -42 -40 -44 -41 -51 -51 -69 -104 -20 -58 -21 -115 -4 -175
7 -24 13 -49 15 -55 2 -11 34 -122 80 -274 34 -112 165 -511 175 -530 4 -8 17
-40 29 -70 75 -190 160 -306 255 -351 39 -18 67 -23 126 -23 113 0 189 45 282
165 17 22 119 226 162 322 9 21 18 37 20 35 2 -2 17 -39 35 -83 123 -314 235
-434 407 -436 123 -2 228 73 300 213 20 40 38 78 39 83 2 6 24 62 50 125 59
146 60 149 72 185 6 17 14 39 18 50 8 21 8 21 16 45 3 8 10 31 17 50 7 19 28
82 47 140 19 58 37 112 41 120 3 8 7 20 9 25 2 9 99 311 110 345 3 8 5 16 5
17 -1 2 8 27 18 55 21 58 85 262 126 403 14 50 30 99 35 110 8 17 26 78 36
120 1 6 14 48 29 94 15 46 28 91 30 100 3 9 15 52 28 96 14 47 23 99 22 130
-3 58 -15 181 -22 210 -2 11 -6 34 -9 50 -26 170 -107 423 -182 570 -20 39
-35 73 -34 77 1 3 -5 12 -13 18 -8 7 -15 17 -15 22 0 15 -117 185 -180 263
-207 252 -476 445 -781 559 -156 57 -227 75 -439 110 -14 3 -25 5 -25 7 0 4
-403 8 -407 4z"/>
</g>
</svg>
